<svg xmlns="http://www.w3.org/2000/svg" id="prefix__Component_73_1" width="30" height="30" data-name="Component 73 – 1" viewBox="0 0 30 30">
    <defs>
        <style>
            .prefix__cls-1{fill:#fffdf7}
        </style>
    </defs>
    <g id="prefix__instagram" transform="translate(6.551 7)">
        <path id="prefix__Path_18" d="M16.406 4.7a5.846 5.846 0 00-.372-1.941A4.1 4.1 0 0013.692.422a5.861 5.861 0 00-1.94-.372C10.9.009 10.623 0 8.451 0s-2.444.009-3.3.047a5.848 5.848 0 00-1.939.372 3.9 3.9 0 00-1.419.925A3.939 3.939 0 00.871 2.76 5.862 5.862 0 00.5 4.7C.459 5.557.449 5.829.449 8s.01 2.446.051 3.3a5.846 5.846 0 00.368 1.94 4.1 4.1 0 002.341 2.341 5.862 5.862 0 001.941.372C6 15.991 6.275 16 8.448 16s2.444-.009 3.3-.047a5.845 5.845 0 001.941-.372 4.092 4.092 0 002.341-2.341 5.866 5.866 0 00.37-1.94c.037-.853.047-1.125.047-3.3s-.004-2.443-.041-3.3zm-1.441 6.533a4.386 4.386 0 01-.275 1.485 2.654 2.654 0 01-1.52 1.522 4.4 4.4 0 01-1.485.275c-.844.038-1.1.047-3.232.047s-2.391-.009-3.232-.047a4.383 4.383 0 01-1.485-.275 2.462 2.462 0 01-.919-.6 2.488 2.488 0 01-.6-.919 4.4 4.4 0 01-.275-1.485c-.038-.844-.047-1.1-.047-3.232s.009-2.391.047-3.232a4.383 4.383 0 01.275-1.485 2.432 2.432 0 01.6-.919 2.484 2.484 0 01.919-.6A4.4 4.4 0 015.225 1.5c.844-.037 1.1-.047 3.232-.047s2.391.009 3.232.047a4.385 4.385 0 011.485.275 2.46 2.46 0 01.919.6 2.487 2.487 0 01.6.919 4.4 4.4 0 01.275 1.485c.037.844.047 1.1.047 3.232s-.015 2.382-.05 3.226zm0 0" class="prefix__cls-1" data-name="Path 18"/>
        <path id="prefix__Path_19" d="M128.875 124.5a3.925 3.925 0 103.925 3.925 3.926 3.926 0 00-3.925-3.925zm0 6.47a2.546 2.546 0 112.546-2.546 2.546 2.546 0 01-2.546 2.546zm0 0" class="prefix__cls-1" data-name="Path 19" transform="translate(-120.424 -120.423)"/>
        <path id="prefix__Path_20" d="M364.449 89.6a1 1 0 11-1-1 1 1 0 011 1zm0 0" class="prefix__cls-1" data-name="Path 20" transform="translate(-351.213 -86.143)"/>
    </g>
    <g id="prefix__Twitter">
        <path id="prefix__Oval-1" d="M15 30A15 15 0 100 15a15 15 0 0015 15zm0-1.8A13.2 13.2 0 101.8 15 13.2 13.2 0 0015 28.2z" style="fill-rule:evenodd;fill:#fffdf7"/>
    </g>
</svg>
