<svg xmlns="http://www.w3.org/2000/svg" id="prefix__Page-1" width="30" height="30" viewBox="0 0 30 30">
    <g id="prefix__Twitter">
        <path id="prefix__Oval-1" d="M15 30A15 15 0 100 15a15 15 0 0015 15zm0-1.8A13.2 13.2 0 101.8 15 13.2 13.2 0 0015 28.2zm-.191-15.867l.029.493-.477-.06a7.634 7.634 0 01-4.54-2.335l-.629-.654-.162.483a3 3 0 00.591 2.979c.382.423.3.483-.362.231-.229-.081-.429-.141-.448-.111a3.737 3.737 0 00.343 1.348A3.143 3.143 0 0010.46 16l.467.231-.553.01c-.534 0-.553.01-.5.221a2.933 2.933 0 001.784 1.65l.591.211-.515.322a5.2 5.2 0 01-2.556.745 2.709 2.709 0 00-.782.081 7.122 7.122 0 001.841.886 7.75 7.75 0 006.257-.745 8.659 8.659 0 003.176-3.9 10.778 10.778 0 00.649-3.019c0-.463.029-.523.563-1.077a6.487 6.487 0 00.668-.775c.1-.191.086-.191-.4-.02-.811.3-.925.262-.525-.191a2.953 2.953 0 00.649-1.077c0-.03-.143.02-.305.111a5.187 5.187 0 01-.839.342l-.515.171-.467-.332a3.825 3.825 0 00-.811-.443 3.123 3.123 0 00-1.669.04 2.884 2.884 0 00-1.86 2.9zm0 0" style="fill:#fffdf7;fill-rule:evenodd"/>
    </g>
</svg>
