<svg xmlns="http://www.w3.org/2000/svg" width="30" height="30" viewBox="0 0 30 30">
    <g id="prefix__Group_226" data-name="Group 226" transform="translate(-1582 -4245)">
        <g id="prefix__Twitter" transform="translate(1582 4245)">
            <path id="prefix__Oval-1" d="M15 30A15 15 0 100 15a15 15 0 0015 15zm0-1.8A13.2 13.2 0 101.8 15 13.2 13.2 0 0015 28.2z" style="fill-rule:evenodd;fill:#fffdf7"/>
        </g>
        <path id="prefix__logo" d="M15.67-4.329a2 2 0 00-1.41-1.41A46.833 46.833 0 008-6.082a48.657 48.657 0 00-6.26.33A2.045 2.045 0 00.329-4.329 21.121 21.121 0 000-.481a21.043 21.043 0 00.329 3.849 2 2 0 001.41 1.41A46.918 46.918 0 008 5.121a48.657 48.657 0 006.26-.33 2 2 0 001.41-1.41A21.128 21.128 0 0016-.468a20.049 20.049 0 00-.33-3.861zM6.405 1.918v-4.8l4.165 2.4zm0 0" transform="translate(1589 4260.082)" style="fill:#fffdf7"/>
    </g>
</svg>
