<svg xmlns="http://www.w3.org/2000/svg" width="58.172" height="64.748" viewBox="0 0 58.172 64.748">
    <defs>
        <style>
            .prefix__cls-2{fill:#464646}
        </style>
    </defs>
    <g id="prefix__Artwork" style="opacity:.5">
        <path id="prefix__Path_80" d="M81.263 122.525A1.263 1.263 0 1 0 80 121.263a1.263 1.263 0 0 0 1.263 1.262zm0 0" class="prefix__cls-2" data-name="Path 80" transform="translate(-69.882 -104.824)"/>
        <path id="prefix__Path_81" d="M3.794 45.526h8.634l-8.736 17.39a1.265 1.265 0 0 0 1.13 1.832h5.762a1.265 1.265 0 0 0 1.13-.7l9.307-18.525h4.271v17.961a1.265 1.265 0 0 0 1.265 1.265h5.058a1.265 1.265 0 0 0 1.265-1.265V45.526h4.271l9.308 18.525a1.264 1.264 0 0 0 1.13.7h5.763a1.265 1.265 0 0 0 1.13-1.832l-8.737-17.39h8.634a3.794 3.794 0 0 0 1.265-7.37V8.852a3.8 3.8 0 0 0-3.794-3.794H36.674V3.794A3.8 3.8 0 0 0 32.88 0h-7.588A3.8 3.8 0 0 0 21.5 3.794v1.264H6.323a3.8 3.8 0 0 0-3.794 3.794v29.3a3.795 3.795 0 0 0 1.265 7.372zM9.8 62.219H6.872l8.386-16.693h2.932zm20.547 0h-2.526V45.526h2.529zm20.95 0h-2.929l-8.386-16.693h2.932zM54.378 43H3.794a1.265 1.265 0 0 1 0-2.529h50.584a1.265 1.265 0 0 1 0 2.529zM37.2 37.938l-3.8-3.793 7.064-7.064 10.861 10.857zm-6.477-2.9l2.9 2.9H6.847l13.387-13.387zM24.028 3.794a1.266 1.266 0 0 1 1.265-1.265h7.587a1.266 1.266 0 0 1 1.265 1.265v3.794H24.028zM6.323 7.588H21.5v1.264a1.265 1.265 0 0 0 1.265 1.265h12.644a1.265 1.265 0 0 0 1.265-1.265V7.588h15.175a1.266 1.266 0 0 1 1.265 1.265v27.3L41.362 24.4a1.264 1.264 0 0 0-1.788 0l-7.958 7.958-10.488-10.489a1.264 1.264 0 0 0-1.788 0L5.058 36.15V8.852a1.266 1.266 0 0 1 1.265-1.264zm0 0" class="prefix__cls-2" data-name="Path 81"/>
        <path id="prefix__Path_82" d="M223.788 147.576a3.788 3.788 0 1 0-3.788-3.788 3.792 3.792 0 0 0 3.788 3.788zm0-5.051a1.263 1.263 0 1 1-1.263 1.263 1.264 1.264 0 0 1 1.263-1.263zm0 0" class="prefix__cls-2" data-name="Path 82" transform="translate(-192.172 -122.292)"/>
        <path id="prefix__Path_83" d="M321.263 122.525h5.051a1.263 1.263 0 0 0 0-2.525h-5.051a1.263 1.263 0 0 0 0 2.525zm0 0" class="prefix__cls-2" data-name="Path 83" transform="translate(-279.523 -104.824)"/>
        <path id="prefix__Path_84" d="M121.263 122.525h7.576a1.263 1.263 0 0 0 0-2.525h-7.576a1.263 1.263 0 0 0 0 2.525zm0 0" class="prefix__cls-2" data-name="Path 84" transform="translate(-104.82 -104.824)"/>
    </g>
</svg>
