<svg xmlns="http://www.w3.org/2000/svg" width="64.759" height="64.748" viewBox="0 0 64.759 64.748">
    <defs>
        <style>
            .prefix__cls-2{fill:#464646}
        </style>
    </defs>
    <g id="prefix__Bequest" style="opacity:.5">
        <path id="prefix__Path_111" d="M231.118 98.437a3.265 3.265 0 0 0-5.983-.783l-.544.947a1.088 1.088 0 0 0-1.479.392l-2.763 4.71-.947-.544a1.087 1.087 0 1 0-1.088 1.882l.947.544-9.246 16.023-2.284 6.1-1.088 2.034a3.264 3.264 0 0 0 .174 3.525l-2.448 3-.685-1.718a2.176 2.176 0 0 0-3.884-.3l-.391.663-.37-4.351a2.176 2.176 0 0 0-4.232-.511l-2.676 8.028a1.088 1.088 0 0 0 .685 1.371.942.942 0 0 0 .337.087 1.088 1.088 0 0 0 1.034-.739l2.665-8.028.381 4.416a2.176 2.176 0 0 0 4.036.936l.4-.664.675 1.708a2.175 2.175 0 0 0 3.72.555l2.535-3.209a3.351 3.351 0 0 0 .859.109 3.264 3.264 0 0 0 2.839-1.61l1.088-1.817 4.145-5.036 9.344-16.219.947.544a1.091 1.091 0 0 1 .4 1.49l-4.351 7.539a1.08 1.08 0 1 0 1.838 1.131l4.351-7.539a3.262 3.262 0 0 0-1.2-4.46l-.947-.544 2.719-4.71a1.088 1.088 0 0 0-.391-1.479l.544-.947a3.262 3.262 0 0 0 .334-2.526zm-4.1.3a1.088 1.088 0 0 1 .664-.511 1.142 1.142 0 0 1 .826.109 1.089 1.089 0 0 1 .512.663 1.142 1.142 0 0 1-.109.826l-.544.947-1.893-1.088zm-14.827 30.372l-.544-.315-1.61-.936 1.545-4.133 3.426 1.98zm-3.263 3.143a1.087 1.087 0 0 1-.326-1.425l.544-.946 1.892 1.088-.544.935a1.087 1.087 0 0 1-1.566.348zm7.321-8.332l-3.764-2.176 8.7-15.077 3.764 2.176zm9.79-16.959l-3.764-2.176 2.176-3.764 3.764 2.176zm0 0" class="prefix__cls-2" data-name="Path 111" transform="translate(-166.479 -83.488)"/>
        <path id="prefix__Path_112" d="M75.325 356.858l-3.85 3.84-2.306-2.306a1.088 1.088 0 1 0-1.534 1.545l2.306 2.306a2.193 2.193 0 0 0 3.079 0l3.84-3.851a1.088 1.088 0 0 0-1.534-1.534zm0 0" class="prefix__cls-2" data-name="Path 112" transform="translate(-58.16 -308.54)"/>
        <path id="prefix__Path_113" d="M32 321.287a9.246 9.246 0 1 0 18.493 0 1.088 1.088 0 1 0-2.176 0 7.072 7.072 0 1 1-2.828-5.656 1.088 1.088 0 0 0 1.306-1.741A9.246 9.246 0 0 0 32 321.287zm0 0" class="prefix__cls-2" data-name="Path 113" transform="translate(-27.649 -270.137)"/>
        <path id="prefix__Path_114" d="M101.371 50.215a1.088 1.088 0 1 0 0-2.176H73.088A1.088 1.088 0 0 0 72 49.127v4.351a1.088 1.088 0 0 0 1.088 1.088h28.283a1.088 1.088 0 1 0 0-2.176H74.176v-2.175zm0 0" class="prefix__cls-2" data-name="Path 114" transform="translate(-62.21 -41.512)"/>
        <path id="prefix__Path_115" d="M97.088 112.039a1.088 1.088 0 1 0 0 2.176h21.756a1.088 1.088 0 1 0 0-2.176zm0 0" class="prefix__cls-2" data-name="Path 115" transform="translate(-83.111 -96.935)"/>
        <path id="prefix__Path_116" d="M153.019 168.039h-23.931a1.088 1.088 0 0 0 0 2.176h23.932a1.088 1.088 0 0 0 0-2.176zm0 0" class="prefix__cls-2" data-name="Path 116" transform="translate(-110.826 -145.383)"/>
        <path id="prefix__Path_117" d="M79.932 217.127a1.088 1.088 0 0 0-1.088-1.088H57.088a1.088 1.088 0 1 0 0 2.176h21.756a1.088 1.088 0 0 0 1.088-1.088zm0 0" class="prefix__cls-2" data-name="Path 117" transform="translate(-48.385 -186.91)"/>
        <path id="prefix__Path_118" d="M256.7 216.039h-7.615a1.088 1.088 0 1 0 0 2.176h7.615a1.088 1.088 0 1 0 0-2.176zm0 0" class="prefix__cls-2" data-name="Path 118" transform="translate(-214.594 -186.91)"/>
        <path id="prefix__Path_119" d="M67.966 258.215a1.088 1.088 0 1 0 0-2.176H57.088a1.088 1.088 0 1 0 0 2.176zm0 0" class="prefix__cls-2" data-name="Path 119" transform="translate(-48.385 -221.516)"/>
        <path id="prefix__Path_120" d="M169.088 258.215h7.612a1.088 1.088 0 1 0 0-2.176h-7.615a1.088 1.088 0 1 0 0 2.176zm0 0" class="prefix__cls-2" data-name="Path 120" transform="translate(-145.37 -221.516)"/>
        <path id="prefix__Path_121" d="M48.442 49.679a1.078 1.078 0 0 0-1.076 1.079V61.55a1.078 1.078 0 0 1-1.076 1.079H3.229a1.078 1.078 0 0 1-1.076-1.079V3.276A1.078 1.078 0 0 1 3.229 2.2h43.06a1.078 1.078 0 0 1 1.076 1.079v20.264a1.077 1.077 0 1 0 2.153 0V3.276A3.234 3.234 0 0 0 46.289.039H3.229A3.234 3.234 0 0 0 0 3.276V61.55a3.233 3.233 0 0 0 3.229 3.237h43.06a3.233 3.233 0 0 0 3.229-3.237V50.758a1.078 1.078 0 0 0-1.076-1.079zm0 0" class="prefix__cls-2" data-name="Path 121" transform="translate(0 -.039)"/>
    </g>
</svg>
