<svg xmlns="http://www.w3.org/2000/svg" width="64.748" height="64.748" viewBox="0 0 64.748 64.748">
    <defs>
        <style>
            .prefix__cls-2{fill:#464646}
        </style>
    </defs>
    <g id="prefix__Data" style="opacity:.5">
        <path id="prefix__Path_94" d="M66.432 13.108L55.641 2.316A1.079 1.079 0 0 0 54.878 2H22.5a1.079 1.079 0 0 0-1.079 1.079V7.4h-5.4a1.079 1.079 0 0 0-1.071 1.075v21.583h-3.238a1.079 1.079 0 0 0-1.079 1.079v3.237H7.4a1.079 1.079 0 0 0-1.079 1.079v3.237H3.079A1.079 1.079 0 0 0 2 39.77v25.9a1.079 1.079 0 0 0 1.079 1.079H48.4a1.079 1.079 0 0 0 1.079-1.079v-3.238h16.19a1.079 1.079 0 0 0 1.079-1.079V13.871a1.079 1.079 0 0 0-.316-.763zM55.957 5.684l7.107 7.107h-7.107zm-38.849 3.87h4.317v20.5h-4.317zm-4.317 22.662h43.166v23.741H12.791zm-4.316 4.316h2.158v20.5a1.079 1.079 0 0 0 1.079 1.079H51.64v2.158H8.475zM47.324 64.59H4.158V40.849h2.159v20.5A1.079 1.079 0 0 0 7.4 62.432h39.924zm17.266-4.317H53.8v-2.158h3.237a1.079 1.079 0 0 0 1.079-1.079v-25.9a1.079 1.079 0 0 0-1.079-1.079H23.583V4.158H53.8v9.712a1.079 1.079 0 0 0 1.079 1.079h9.711z" class="prefix__cls-2" data-name="Path 94" transform="translate(-2 -2)"/>
        <path id="prefix__Path_95" d="M15.081 48.156a2.158 2.158 0 0 1 2.161 2.154 1.079 1.079 0 0 0 1.081 1.077h30.253a1.079 1.079 0 0 0 1.081-1.077 2.158 2.158 0 0 1 2.161-2.154 1.079 1.079 0 0 0 1.082-1.077V36.308a1.079 1.079 0 0 0-1.081-1.077 2.158 2.158 0 0 1-2.161-2.154A1.079 1.079 0 0 0 48.576 32H18.322a1.079 1.079 0 0 0-1.081 1.077 2.158 2.158 0 0 1-2.161 2.154A1.079 1.079 0 0 0 14 36.308v10.771a1.079 1.079 0 0 0 1.081 1.077zm10.805-6.462a7.564 7.564 0 1 1 7.564 7.54 7.552 7.552 0 0 1-7.564-7.54zm21.747-7.539a4.331 4.331 0 0 0 3.1 3.1v8.888a4.331 4.331 0 0 0-3.1 3.1h-8.085a9.651 9.651 0 0 0 0-15.079zm-31.472 3.1a4.331 4.331 0 0 0 3.1-3.1h8.085a9.651 9.651 0 0 0 0 15.079h-8.081a4.331 4.331 0 0 0-3.1-3.1z" class="prefix__cls-2" data-name="Path 95" transform="translate(-1.075 .401)"/>
        <path id="prefix__Path_96" d="M29.231 12h-2.154a1.077 1.077 0 0 0 0 2.154h2.154a1.077 1.077 0 0 0 0-2.154z" class="prefix__cls-2" data-name="Path 96" transform="translate(-.097 -1.229)"/>
        <path id="prefix__Path_97" d="M33.077 14.154h15.079a1.077 1.077 0 0 0 0-2.154H33.077a1.077 1.077 0 1 0 0 2.154z" class="prefix__cls-2" data-name="Path 97" transform="translate(.397 -1.229)"/>
        <path id="prefix__Path_98" d="M29.231 8h-2.154a1.077 1.077 0 0 0 0 2.154h2.154a1.077 1.077 0 0 0 0-2.154z" class="prefix__cls-2" data-name="Path 98" transform="translate(-.097 -1.538)"/>
        <path id="prefix__Path_99" d="M33.077 10.154h15.079a1.077 1.077 0 0 0 0-2.154H33.077a1.077 1.077 0 1 0 0 2.154z" class="prefix__cls-2" data-name="Path 99" transform="translate(.397 -1.538)"/>
        <path id="prefix__Path_100" d="M29.231 16h-2.154a1.077 1.077 0 0 0 0 2.154h2.154a1.077 1.077 0 0 0 0-2.154z" class="prefix__cls-2" data-name="Path 100" transform="translate(-.097 -.891)"/>
        <path id="prefix__Path_101" d="M32 17.077a1.077 1.077 0 0 0 1.077 1.077h23.7a1.077 1.077 0 0 0 0-2.154h-23.7A1.077 1.077 0 0 0 32 17.077z" class="prefix__cls-2" data-name="Path 101" transform="translate(.436 -.891)"/>
        <path id="prefix__Path_102" d="M29.231 20h-2.154a1.077 1.077 0 0 0 0 2.154h2.154a1.077 1.077 0 0 0 0-2.154z" class="prefix__cls-2" data-name="Path 102" transform="translate(-.097 -.574)"/>
        <path id="prefix__Path_103" d="M56.773 20h-23.7a1.077 1.077 0 0 0 0 2.154h23.7a1.077 1.077 0 0 0 0-2.154z" class="prefix__cls-2" data-name="Path 103" transform="translate(.436 -.574)"/>
        <path id="prefix__Path_104" d="M29.231 24h-2.154a1.077 1.077 0 0 0 0 2.154h2.154a1.077 1.077 0 0 0 0-2.154z" class="prefix__cls-2" data-name="Path 104" transform="translate(-.097 -.257)"/>
        <path id="prefix__Path_105" d="M56.773 24h-23.7a1.077 1.077 0 1 0 0 2.154h23.7a1.077 1.077 0 0 0 0-2.154z" class="prefix__cls-2" data-name="Path 105" transform="translate(.436 -.257)"/>
        <path id="prefix__Path_106" d="M33.308 48v-1.273a3.224 3.224 0 0 0-1.077-6.264 1.077 1.077 0 1 1 1.077-1.077 1.077 1.077 0 1 0 2.154 0 3.231 3.231 0 0 0-2.154-3.033v-1.276a1.077 1.077 0 1 0-2.154 0v1.275a3.224 3.224 0 0 0 1.077 6.264 1.077 1.077 0 1 1-1.077 1.077 1.077 1.077 0 0 0-2.154 0 3.231 3.231 0 0 0 2.154 3.033V48a1.077 1.077 0 1 0 2.154 0z" class="prefix__cls-2" data-name="Path 106" transform="translate(.143 .552)"/>
    </g>
</svg>
