<svg xmlns="http://www.w3.org/2000/svg" width="64.748" height="64.748" viewBox="0 0 64.748 64.748">
    <defs>
        <style>
            .prefix__cls-2{fill:#464646}
        </style>
    </defs>
    <g id="prefix__Estate" style="opacity:.5">
        <path id="prefix__Path_107" d="M396.343 418.171a2.171 2.171 0 1 1-2.172-2.171 2.171 2.171 0 0 1 2.172 2.171zm0 0" class="prefix__cls-2" data-name="Path 107" transform="translate(-339.194 -359.937)"/>
        <path id="prefix__Path_108" d="M63.021 33.885l-1.511-1v-14.54A11.889 11.889 0 0 0 51.326 6.594l2.523-5.033A1.079 1.079 0 0 0 52.878 0h-12.95a1.079 1.079 0 0 0-.971 1.561l2.518 5.033a11.89 11.89 0 0 0-10.18 11.751v14.53l-1.505 1a3.884 3.884 0 0 0-1.732 3.243 3.838 3.838 0 0 0 .425 1.727h-4.742V20.5h5.4v-2.155h-6.065l-8.393-7.554h15.149l1.022.835 1.365-1.67L30.9 8.877a1.078 1.078 0 0 0-.683-.244H11.862a1.082 1.082 0 0 0-.345.063 1.046 1.046 0 0 0-.1.047 1.1 1.1 0 0 0-.221.136c-.015.012-.034.016-.05.03L.357 18.621a1.08 1.08 0 0 0-.357.8v20.5a9.727 9.727 0 0 0 6.906 9.294 4.586 4.586 0 0 0-1.511 3.4v.234a4.581 4.581 0 0 0 2.546 4.122l12.583 6.29a14.1 14.1 0 0 0 6.274 1.48h36.871a1.079 1.079 0 0 0 1.079-1.079V48.561a1.079 1.079 0 0 0-1.079-1.079h-2.542a9.694 9.694 0 0 0 3.622-7.554 1.064 1.064 0 0 0-.522-.9 3.844 3.844 0 0 0 .522-1.9 3.884 3.884 0 0 0-1.728-3.243zm-32.805 3.237a1.727 1.727 0 0 1 .771-1.442l1.986-1.324a1.079 1.079 0 0 0 .48-.9V18.345a9.724 9.724 0 0 1 9.712-9.712 1.079 1.079 0 0 0 .971-1.561l-2.462-4.914h9.457l-2.457 4.914a1.079 1.079 0 0 0 .966 1.561 9.724 9.724 0 0 1 9.712 9.712v15.108a1.08 1.08 0 0 0 .48.9l1.986 1.324a1.732 1.732 0 0 1-.955 3.174H31.948a1.734 1.734 0 0 1-1.732-1.729zM2.158 19.9l9.712-8.741 9.713 8.741v18.949h-5.4v-7.554a1.079 1.079 0 0 0-1.079-1.079H8.633a1.079 1.079 0 0 0-1.079 1.079v7.554h-5.4zm11.87 18.944H9.712v-6.47h4.317zm7.7 14.08l-7.176-3.284h7.631a4.231 4.231 0 0 0-.45 3.289zm-.243 8.407L8.907 55.045a2.432 2.432 0 0 1-1.353-2.189v-.234A2.443 2.443 0 0 1 11.02 50.4l12.271 5.62a1.087 1.087 0 0 0 .45.1h10.791a1.079 1.079 0 1 0 0-2.158H25.9a2.158 2.158 0 0 1 0-4.317h8.274a1.076 1.076 0 0 0 .516-.132l.276-.15a14.4 14.4 0 0 1 13.6-.156V62.59H26.8a11.907 11.907 0 0 1-5.31-1.254zm41.1-11.7V62.59H50.719V49.64zm-7.554-2.158h-5.124a16.54 16.54 0 0 0-15.972-.019l-8.036.019H9.712a7.567 7.567 0 0 1-7.478-6.475h60.28a7.567 7.567 0 0 1-7.478 6.484zm0 0" class="prefix__cls-2" data-name="Path 108"/>
        <path id="prefix__Path_109" d="M311.057 119.6H307.8a1.628 1.628 0 1 1 0-3.257h5.971v-2.171h-3.257V112h-2.171v2.171h-.543a3.8 3.8 0 1 0 0 7.6h3.257a1.628 1.628 0 1 1 0 3.257h-5.971v2.172h3.257v2.171h2.171V127.2h.543a3.8 3.8 0 1 0 0-7.6zm0 0" class="prefix__cls-2" data-name="Path 109" transform="translate(-263.042 -96.925)"/>
        <path id="prefix__Path_110" d="M65.086 159.6h4.342a1.086 1.086 0 0 0 1.086-1.086v-5.428A1.086 1.086 0 0 0 69.428 152h-4.342A1.086 1.086 0 0 0 64 153.086v5.428a1.086 1.086 0 0 0 1.086 1.086zm1.086-5.428h2.171v3.257h-2.172zm0 0" class="prefix__cls-2" data-name="Path 110" transform="translate(-55.315 -131.513)"/>
    </g>
</svg>
